<svg xmlns="http://www.w3.org/2000/svg" version="1.1" xmlns:xlink="http://www.w3.org/1999/xlink" xmlns:svgjs="http://svgjs.dev/svgjs" width="1000" height="623" viewBox="0 0 1000 623"><g transform="matrix(1,0,0,1,-0.6060606060606233,0.2522267206477977)"><svg viewBox="0 0 396 247" data-background-color="#ffc0cb" preserveAspectRatio="xMidYMid meet" height="623" width="1000" xmlns="http://www.w3.org/2000/svg" xmlns:xlink="http://www.w3.org/1999/xlink"><g id="tight-bounds" transform="matrix(1,0,0,1,0.2400000000000091,-0.09999999999999432)"><svg viewBox="0 0 395.52 247.2" height="247.2" width="395.52"><g><svg></svg></g><g><svg viewBox="0 0 395.52 247.2" height="247.2" width="395.52"><g transform="matrix(1,0,0,1,75.54432,83.75822143647054)"><svg viewBox="0 0 244.43135999999998 79.68355712705893" height="79.68355712705893" width="244.43135999999998"><g><svg viewBox="0 0 419.871422769327 136.87625230354723" height="79.68355712705893" width="244.43135999999998"><g transform="matrix(1,0,0,1,0,16.799072861038788)"><svg viewBox="0 0 244.43135999999998 103.27810658146966" height="103.27810658146966" width="244.43135999999998"><g id="textblocktransform"><svg viewBox="0 0 244.43135999999998 103.27810658146966" height="103.27810658146966" width="244.43135999999998" id="textblock"><g><svg viewBox="0 0 244.43135999999998 103.27810658146966" height="103.27810658146966" width="244.43135999999998"><g transform="matrix(1,0,0,1,0,0)"><svg width="244.43135999999998" viewBox="1.7999999523162842 -38.04999923706055 125.18999481201172 52.900001525878906" height="103.27810658146966" data-palette-color="#ffffff"><path d="M17.3-16.95L17.3-16.95Q17.3-20.2 14.4-20.2L14.4-20.2Q12.25-20.2 10.55-17.75L10.55-17.75Q8.75-15.1 8.75-11.55 8.75-8 10.33-6.08 11.9-4.15 14.65-4.15L14.65-4.15Q17.95-4.15 21.63-6.85 25.3-9.55 27.55-13.55L27.55-13.55Q28.55-12.8 29.5-10.8L29.5-10.8Q28.05-7.9 24.1-4.3L24.1-4.3Q22.05-2.4 19-1.1L19-1.1Q15.7 0.3 12.4 0.3L12.4 0.3Q7.95 0.3 4.88-2.75 1.8-5.8 1.8-10.7L1.8-10.7Q1.8-16.65 5.8-20.35 9.8-24.05 14.75-24.05L14.75-24.05Q18.6-24.05 20.85-22.45 23.1-20.85 23.1-18.25L23.1-18.25Q23.1-16.55 21.9-15.3L21.9-15.3Q19.7-13.1 16.55-13.1L16.55-13.1Q17.3-15.6 17.3-16.95ZM47.35 0.25L47.35 0.25Q42.75 0.25 41.25-2.95L41.25-2.95Q38.65 0.3 34.57 0.3 30.5 0.3 27.72-2.45 24.95-5.2 24.95-9.7L24.95-9.7Q24.95-16.25 28.8-20.15 32.65-24.05 38.55-24.05L38.55-24.05Q38.7-24.05 38.85-24.05L38.85-24.05Q41.35-24.05 43.45-23.2L43.45-23.2Q44.8-24.05 46.72-24.05 48.65-24.05 49.5-23.55L49.5-23.55Q49.05-19.85 48.55-16.28 48.05-12.7 47.85-11.2L47.85-11.2Q47.4-7.8 47.4-6.3L47.4-6.3Q47.4-4.3 49-4.3L49-4.3Q50.25-4.3 51.65-5.98 53.05-7.65 54.1-11.25L54.1-11.25Q55.55-9.95 56.1-8.35L56.1-8.35Q54.65-3.6 52.2-1.68 49.75 0.25 47.35 0.25ZM39.3-20.15L39.3-20.15Q36.1-20.15 34.22-17.73 32.35-15.3 32-10.5L32-10.5Q31.95-10.05 31.95-9.65L31.95-9.65Q31.95-7.2 33.12-5.75 34.3-4.3 36.15-4.3L36.15-4.3Q39.3-4.3 40.9-8.75L40.9-8.75 42.1-19.55Q40.65-20.15 39.3-20.15ZM75.15-18L75.15-18Q75.15-12.8 68.95-10.05L68.95-10.05Q69.09-9.15 69.4-7.9L69.4-7.9Q70.3-4.2 72.4-4.1L72.4-4.1Q72.55-4.1 72.7-4.1L72.7-4.1Q76.7-4.1 78.65-11.15L78.65-11.15Q79.7-10.2 80.65-8.3L80.65-8.3Q79.95-5.6 78.67-3.75 77.4-1.9 75.9-1.1L75.9-1.1Q73.25 0.3 70.9 0.3L70.9 0.3Q65.4 0.3 63.2-5.85L63.2-5.85Q62.35-8.3 62.05-10.85L62.05-10.85Q64.9-11.55 66.55-13.18 68.2-14.8 68.2-16.65L68.2-16.65Q68.2-19.85 65-19.85L65-19.85Q63.25-19.85 62-18.53 60.75-17.2 60.35-15.35L60.35-15.35Q60.05-12.8 59.37-7.33 58.7-1.85 58.5 0L58.5 0 51.85 0Q55.45-30.65 56.2-37.65L56.2-37.65Q57.25-38.05 59.05-38.05L59.05-38.05Q62.95-38.05 62.95-35.75L62.95-35.75 62.95-35.45Q61.95-26.4 61.1-21.6L61.1-21.6Q63.85-24.15 68-24.15L68-24.15Q71.09-24.15 73.12-22.55 75.15-20.95 75.15-18ZM86.59-11.2Q89.69-11.85 91.22-13.7 92.74-15.55 92.74-17.28 92.74-19 91.82-19.63 90.89-20.25 89.79-20.25L89.79-20.25Q87.44-20.25 85.67-17.63 83.89-15 83.89-11.38 83.89-7.75 85.62-5.98 87.34-4.2 89.89-4.2L89.89-4.2Q93.64-4.2 97.09-6.8 100.54-9.4 102.69-13.6L102.69-13.6Q103.79-12.55 104.69-11L104.69-11Q103.04-7.25 98.84-3.65L98.84-3.65Q96.74-1.9 93.87-0.8 90.99 0.3 87.94 0.3L87.94 0.3Q82.94 0.3 80.04-2.75L80.04-2.75Q76.94-6.05 76.94-11.2 76.94-16.35 80.82-20.2 84.69-24.05 90.09-24.05L90.09-24.05Q93.94-24.05 96.34-22.38 98.74-20.7 98.79-17.85L98.79-17.85Q98.79-14 95.72-11.6 92.64-9.2 87.29-8.25L87.29-8.25 86.59-11.2ZM109.19 14.85L109.19 14.85Q106.34 14.85 104.29 13.13 102.24 11.4 102.24 8.1L102.24 8.1Q102.24 4.05 106.34 0.2L106.34 0.2Q103.44-0.05 101.69-1.7 99.94-3.35 99.94-6.35L99.94-6.35Q99.94-7.75 100.29-10.55 100.64-13.35 101.04-16.6 101.44-19.85 101.89-23.5L101.89-23.5Q103.44-24.05 104.74-24.05 106.04-24.05 106.69-23.95 107.34-23.85 107.94-23.2 108.54-22.55 108.54-21.35L108.54-21.35 106.89-8.6Q106.79-7.8 106.79-7.5L106.79-7.5Q106.79-4.55 109.49-4.55L109.49-4.55Q111.94-4.55 113.49-6.85L113.49-6.85Q113.64-8 114.24-13.48 114.84-18.95 115.24-22L115.24-22Q115.69-22.95 117.12-23.5 118.54-24.05 119.44-24.05L119.44-24.05Q121.04-24.05 122.34-23.65L122.34-23.65 119.99-5.2Q125.84-4.15 126.99 2.85L126.99 2.85Q126.79 3.8 125.09 5.85L125.09 5.85Q124.09-0.4 119.59-1.75L119.59-1.75 118.79 4.5Q118.24 9 115.94 11.93 113.64 14.85 109.19 14.85ZM106.14 7.15Q106.14 8.8 106.94 9.6 107.74 10.4 109.07 10.4 110.39 10.4 111.09 9.3 111.79 8.2 112.19 4.9L112.19 4.9 112.84-0.6Q106.29 2.8 106.14 7.15L106.14 7.15Z" opacity="1" transform="matrix(1,0,0,1,0,0)" fill="#ffffff" class="undefined-text-0" data-fill-palette-color="primary" id="text-0"></path></svg></g></svg></g></svg></g></svg></g><g transform="matrix(1,0,0,1,268.812842289327,0)"><svg viewBox="0 0 151.05858048 136.87625230354723" height="136.87625230354723" width="151.05858048"><g><svg xmlns="http://www.w3.org/2000/svg" xmlns:xlink="http://www.w3.org/1999/xlink" version="1.1" x="0" y="0" viewBox="19.131000518798828 21.426664352416992 62.242000579833984 56.39833068847656" enable-background="new 0 0 100 100" xml:space="preserve" height="136.87625230354723" width="151.05858048" class="icon-icon-0" data-fill-palette-color="accent" id="icon-0"><g fill="#ffffff" data-fill-palette-color="accent"><path fill="#ffffff" d="M30.397 44.061c0.054 0 0.109-0.005 0.163-0.015l3.089-0.571c0.484-0.089 0.804-0.555 0.714-1.039-0.089-0.484-0.558-0.801-1.039-0.713l-3.089 0.573c-0.484 0.087-0.804 0.552-0.713 1.037C29.602 43.761 29.976 44.061 30.397 44.061z" data-fill-palette-color="accent"></path><path fill="#ffffff" d="M37.348 45.774c0.165 0.285 0.465 0.447 0.774 0.447 0.15 0 0.302-0.038 0.441-0.117 0.427-0.244 0.575-0.788 0.331-1.217l-0.475-0.832c-0.245-0.427-0.789-0.575-1.216-0.331-0.426 0.243-0.575 0.789-0.331 1.216L37.348 45.774z" data-fill-palette-color="accent"></path><path fill="#ffffff" d="M38.121 41.707c0.1 0 0.201-0.016 0.3-0.053l1.663-0.593c0.464-0.167 0.706-0.677 0.54-1.139-0.165-0.466-0.677-0.705-1.139-0.539l-1.663 0.592c-0.463 0.166-0.705 0.676-0.54 1.138C37.412 41.479 37.755 41.707 38.121 41.707z" data-fill-palette-color="accent"></path><path fill="#ffffff" d="M42.53 45.681c0.145 0.339 0.473 0.541 0.819 0.541 0.117 0 0.236-0.023 0.351-0.073 0.451-0.194 0.662-0.717 0.467-1.17l-0.356-0.831c-0.194-0.453-0.719-0.662-1.171-0.468-0.451 0.193-0.661 0.718-0.467 1.171L42.53 45.681z" data-fill-palette-color="accent"></path><path fill="#ffffff" d="M51.07 47.292c0.035 0 0.069-0.004 0.104-0.006l2.021-0.239c0.489-0.057 0.839-0.499 0.78-0.989-0.057-0.489-0.498-0.834-0.988-0.782l-2.02 0.239c-0.489 0.057-0.838 0.499-0.782 0.988C50.24 46.957 50.625 47.292 51.07 47.292z" data-fill-palette-color="accent"></path><path fill="#ffffff" d="M56.475 44.042c0.061 0.013 0.121 0.019 0.182 0.019 0.414 0 0.784-0.289 0.872-0.709l0.118-0.572c0.101-0.483-0.21-0.955-0.691-1.054-0.479-0.101-0.953 0.209-1.054 0.69l-0.118 0.573C55.683 43.471 55.992 43.942 56.475 44.042z" data-fill-palette-color="accent"></path><path fill="#ffffff" d="M66.396 42.775c0.033 0 0.066-0.001 0.1-0.004 0.488-0.055 0.842-0.497 0.787-0.985l-0.119-1.068c-0.054-0.491-0.498-0.841-0.982-0.788-0.49 0.054-0.843 0.494-0.788 0.984l0.118 1.068C65.562 42.438 65.948 42.775 66.396 42.775z" data-fill-palette-color="accent"></path><path fill="#ffffff" d="M72.812 43.488c0.213 0 0.426-0.075 0.596-0.227l0.237-0.215c0.366-0.329 0.397-0.891 0.068-1.258-0.328-0.366-0.892-0.397-1.258-0.067l-0.237 0.212c-0.367 0.328-0.397 0.891-0.069 1.258C72.325 43.389 72.568 43.488 72.812 43.488z" data-fill-palette-color="accent"></path><path fill="#ffffff" d="M59.506 47.292c0.045 0 0.09-0.005 0.136-0.012l1.545-0.237c0.486-0.074 0.82-0.528 0.746-1.016-0.075-0.486-0.529-0.822-1.018-0.745l-1.544 0.238c-0.486 0.074-0.819 0.529-0.744 1.017C58.693 46.974 59.073 47.292 59.506 47.292z" data-fill-palette-color="accent"></path><path fill="#ffffff" d="M60.279 41.41h0.772c0.491 0 0.891-0.399 0.891-0.891 0-0.493-0.399-0.891-0.891-0.891h-0.772c-0.492 0-0.892 0.398-0.892 0.891C59.388 41.01 59.787 41.41 60.279 41.41z" data-fill-palette-color="accent"></path><path fill="#ffffff" d="M34.557 53.111h-1.069c-0.492 0-0.89 0.4-0.89 0.892 0 0.493 0.398 0.892 0.89 0.892h1.069c0.492 0 0.891-0.398 0.891-0.892C35.448 53.512 35.049 53.111 34.557 53.111z" data-fill-palette-color="accent"></path><path fill="#ffffff" d="M46.083 54.645l-0.713 0.633c-0.368 0.326-0.401 0.89-0.074 1.259 0.176 0.196 0.42 0.299 0.667 0.299 0.21 0 0.422-0.074 0.591-0.226l0.713-0.633c0.368-0.327 0.401-0.892 0.074-1.26C47.015 54.351 46.452 54.316 46.083 54.645z" data-fill-palette-color="accent"></path><path fill="#ffffff" d="M39.784 54.419c-0.491 0-0.891 0.398-0.891 0.892v0.95c0 0.492 0.399 0.891 0.891 0.891 0.493 0 0.891-0.398 0.891-0.891v-0.95C40.675 54.817 40.276 54.419 39.784 54.419z" data-fill-palette-color="accent"></path><path fill="#ffffff" d="M31.943 56.76c-0.492 0-0.891 0.398-0.891 0.891v0.867c0 0.492 0.399 0.892 0.891 0.892 0.492 0 0.891-0.399 0.891-0.892V57.65C32.834 57.158 32.435 56.76 31.943 56.76z" data-fill-palette-color="accent"></path><path fill="#ffffff" d="M51.354 58.004l-0.505 0.711c-0.284 0.401-0.19 0.958 0.212 1.242 0.156 0.11 0.336 0.164 0.515 0.164 0.278 0 0.554-0.13 0.728-0.374l0.506-0.714c0.283-0.402 0.188-0.959-0.213-1.242C52.195 57.506 51.639 57.603 51.354 58.004z" data-fill-palette-color="accent"></path><path fill="#ffffff" d="M62.833 54.419h-0.237c-0.492 0-0.892 0.398-0.892 0.892 0 0.492 0.399 0.892 0.892 0.892h0.237c0.492 0 0.892-0.399 0.892-0.892C63.725 54.817 63.325 54.419 62.833 54.419z" data-fill-palette-color="accent"></path><path fill="#ffffff" d="M75.504 53.257c0.128 0.062 0.265 0.093 0.397 0.093 0.327 0 0.642-0.179 0.798-0.492l0.237-0.476c0.22-0.441 0.042-0.975-0.398-1.195-0.439-0.222-0.975-0.042-1.195 0.397l-0.237 0.476C74.886 52.498 75.063 53.035 75.504 53.257z" data-fill-palette-color="accent"></path><path fill="#ffffff" d="M69.301 55.804c-0.253-0.424-0.802-0.56-1.223-0.309-0.422 0.254-0.56 0.8-0.307 1.223l0.832 1.39c0.166 0.281 0.462 0.434 0.765 0.434 0.156 0 0.313-0.039 0.457-0.127 0.422-0.251 0.561-0.799 0.308-1.221L69.301 55.804z" data-fill-palette-color="accent"></path><path fill="#ffffff" d="M69.367 51.566h-2.019c-0.493 0-0.892 0.4-0.892 0.893 0 0.493 0.398 0.891 0.892 0.891h2.019c0.493 0 0.892-0.397 0.892-0.891C70.259 51.967 69.86 51.566 69.367 51.566z" data-fill-palette-color="accent"></path><path fill="#ffffff" d="M56.245 54.914l-2.257-0.477c-0.482-0.102-0.955 0.207-1.057 0.688-0.101 0.482 0.208 0.954 0.688 1.055l2.259 0.476c0.062 0.014 0.124 0.021 0.185 0.021 0.412 0 0.782-0.288 0.87-0.709C57.034 55.488 56.727 55.016 56.245 54.914z" data-fill-palette-color="accent"></path><path fill="#ffffff" d="M29.064 52.411c-0.485 0.079-0.814 0.541-0.733 1.025l0.119 0.713c0.072 0.436 0.45 0.745 0.877 0.745 0.049 0 0.098-0.005 0.148-0.013 0.485-0.08 0.813-0.54 0.732-1.025l-0.118-0.712C30.009 52.657 29.547 52.329 29.064 52.411z" data-fill-palette-color="accent"></path><path fill="#ffffff" d="M25.998 51.64c-0.452-0.194-0.977 0.016-1.171 0.467l-0.355 0.833c-0.194 0.453 0.015 0.977 0.468 1.17 0.114 0.05 0.233 0.072 0.35 0.072 0.345 0 0.675-0.203 0.819-0.54l0.356-0.833C26.659 52.358 26.45 51.834 25.998 51.64z" data-fill-palette-color="accent"></path><path fill="#ffffff" d="M26.121 44.061c0.255 0 0.509-0.109 0.686-0.322l1.069-1.284c0.314-0.379 0.263-0.939-0.116-1.255-0.377-0.313-0.94-0.263-1.255 0.116l-1.069 1.286c-0.314 0.376-0.264 0.94 0.115 1.254C25.718 43.993 25.92 44.061 26.121 44.061z" data-fill-palette-color="accent"></path><path fill="#ffffff" d="M71.455 35.945c-4.619-1.225-10.466-1.991-16.774-2.239v-6.997c0-0.014-0.008-0.025-0.009-0.039 0.001-0.018 0.009-0.035 0.009-0.053 0-1.02-1.073-2.106-3.398-2.354 0.048-0.962-0.019-1.918-0.384-2.447-0.28-0.404-0.841-0.513-1.247-0.235-0.404 0.281-0.511 0.825-0.232 1.232 0.093 0.185 0.111 0.747 0.07 1.435-2.501 0.194-3.667 1.313-3.667 2.369 0 0.018 0.007 0.035 0.008 0.053-0.001 0.014-0.008 0.025-0.008 0.039v6.996c-6.309 0.248-12.155 1.015-16.774 2.24-6.582 1.746-9.918 4.178-9.918 7.225v12.746c0 0.001 0 0.001 0 0.002v0.025c0 0.628 0.326 1.177 0.817 1.495v7.788c-0.001 0.453 0.072 4.488 3.105 6.188 0.018 0.012 0.036 0.022 0.054 0.03 4.615 2.383 14.277 6.381 27.145 6.381 12.867 0 22.53-3.998 27.146-6.381 0.017-0.008 0.035-0.019 0.054-0.03 3.034-1.699 3.107-5.734 3.105-6.184v-7.792c0.49-0.318 0.816-0.867 0.816-1.495V43.17C81.373 40.123 78.036 37.69 71.455 35.945zM77.81 54.732c-1.923 1.017-2.895 2.305-3.69 3.377-0.913 1.23-1.574 2.121-3.635 2.723-2.08 0.505-3.092 0.059-4.489-0.555-1.427-0.627-3.202-1.408-6.025-0.988-2.839 0.321-4.351 1.535-5.565 2.513-1.183 0.949-2.038 1.636-4.155 1.685-2.115-0.049-2.97-0.735-4.152-1.685-1.215-0.978-2.727-2.191-5.566-2.515-2.824-0.416-4.597 0.362-6.024 0.99-1.397 0.613-2.407 1.06-4.489 0.555-2.06-0.604-2.722-1.492-3.634-2.723-0.795-1.072-1.767-2.361-3.689-3.377v-6.776c1.592 0.919 3.705 1.736 6.354 2.438 5.687 1.509 13.216 2.34 21.203 2.34s15.517-0.831 21.203-2.34c2.648-0.701 4.762-1.518 6.354-2.438V54.732zM47.605 28.598c0.679 0.261 1.552 0.427 2.647 0.427 1.095 0 1.967-0.166 2.646-0.427v12.443c-1.571 1.167-3.723 1.167-5.293 0V28.598zM49.288 26.055c-0.054 0.464 0.255 0.898 0.723 0.979 0.053 0.008 0.104 0.014 0.155 0.014 0.424 0 0.8-0.305 0.877-0.737 0.015-0.083 0.028-0.18 0.043-0.27 0.947 0.111 1.552 0.392 1.759 0.576-0.263 0.234-1.156 0.625-2.593 0.625s-2.332-0.392-2.594-0.625C47.855 26.441 48.412 26.175 49.288 26.055zM45.823 37.269v4.033c0 0.04 0.018 0.074 0.022 0.112-0.024 0.272 0.061 0.552 0.283 0.747 1.176 1.036 2.649 1.556 4.124 1.556 1.473 0 2.948-0.52 4.123-1.556 0.222-0.195 0.307-0.475 0.282-0.748 0.006-0.038 0.023-0.072 0.023-0.111v-4.035c15.261 0.61 23.129 4.262 23.129 5.903 0 1.794-9.376 5.999-27.558 5.999-18.181 0-27.557-4.205-27.557-5.999C22.695 41.529 30.564 37.879 45.823 37.269zM75.729 68.294c-4.34 2.237-13.393 5.966-25.478 5.967-12.084-0.001-21.137-3.729-25.477-5.967-1.018-0.594-1.258-2.455-1.263-3.063v-5.009c0.003 0.004 0.007 0.009 0.01 0.014 1.024 1.379 2.297 3.094 5.542 4.031 0.022 0.007 0.045 0.014 0.069 0.018 3.279 0.806 5.237-0.053 6.809-0.744 1.269-0.558 2.272-0.998 4.091-0.724 0.024 0.005 0.047 0.007 0.071 0.011 1.831 0.202 2.683 0.887 3.762 1.752 1.333 1.072 2.993 2.406 6.351 2.472 0.011 0 0.022 0 0.034 0 0.013 0 0.024 0 0.035 0 3.357-0.067 5.018-1.399 6.351-2.47 1.079-0.867 1.932-1.551 3.763-1.754 0.023-0.003 0.047-0.006 0.071-0.011 1.822-0.274 2.824 0.166 4.092 0.724 1.572 0.691 3.528 1.552 6.81 0.745 0.023-0.005 0.046-0.012 0.069-0.019 3.243-0.936 4.518-2.651 5.541-4.031 0.004-0.005 0.008-0.011 0.013-0.016v5.018C76.994 65.729 76.783 67.678 75.729 68.294z" data-fill-palette-color="accent"></path></g></svg></g></svg></g></svg></g></svg></g><g><path d="M245.816 0c68.262 0 123.6 55.338 123.6 123.6 0 68.262-55.338 123.6-123.6 123.6-51.646 0-95.894-31.677-114.376-76.661h2.937c18.324 43.451 61.319 73.95 111.439 73.95 66.765 0 120.889-54.124 120.889-120.889 0-66.765-54.124-120.889-120.889-120.889-50.119 0-93.114 30.499-111.439 73.95l-2.937 0c18.481-44.985 62.729-76.661 114.376-76.661z" fill="#ffffff" stroke="transparent" data-fill-palette-color="tertiary"></path></g></svg></g><defs></defs></svg><rect width="395.52" height="247.2" fill="none" stroke="none" visibility="hidden"></rect></g></svg></g></svg>